<svg xmlns="http://www.w3.org/2000/svg" width="71" height="70" fill="none"><mask id="a" width="71" height="70" x="0" y="0" maskUnits="userSpaceOnUse" style="mask-type:alpha"><path fill="#402915" d="M.365 0h70v70h-70z"/></mask><g mask="url(#a)"><path fill="#402915" d="M17.866 67.083c-2.431 0-4.497-.85-6.198-2.552-1.702-1.701-2.553-3.767-2.553-6.198 0-2.43.851-4.496 2.553-6.198 1.701-1.701 3.767-2.552 6.198-2.552.68 0 1.312.073 1.895.22.584.145 1.143.34 1.677.582l4.157-5.177c-1.361-1.507-2.31-3.208-2.844-5.104a13.282 13.282 0 0 1-.365-5.687l-5.906-1.97a9.47 9.47 0 0 1-3.135 2.918c-1.264.729-2.674 1.093-4.23 1.093-2.43 0-4.496-.85-6.197-2.552C1.216 32.205.365 30.14.365 27.708c0-2.43.851-4.496 2.553-6.198 1.7-1.701 3.767-2.552 6.197-2.552 2.431 0 4.497.851 6.198 2.552 1.702 1.702 2.553 3.768 2.553 6.198v.584l5.906 2.041a13.951 13.951 0 0 1 3.9-4.448 12.506 12.506 0 0 1 5.506-2.333v-6.344a9.085 9.085 0 0 1-4.703-3.099c-1.24-1.53-1.86-3.317-1.86-5.359 0-2.43.851-4.497 2.553-6.198C30.869.851 32.935 0 35.365 0c2.431 0 4.497.85 6.198 2.552 1.702 1.701 2.552 3.767 2.552 6.198 0 2.042-.632 3.828-1.895 5.36-1.264 1.53-2.82 2.564-4.667 3.098v6.344a12.507 12.507 0 0 1 5.505 2.333 13.95 13.95 0 0 1 3.901 4.448l5.906-2.041v-.584c0-2.43.851-4.496 2.553-6.198 1.701-1.701 3.767-2.552 6.197-2.552 2.431 0 4.497.851 6.198 2.552 1.702 1.702 2.552 3.768 2.552 6.198 0 2.43-.85 4.497-2.552 6.198-1.701 1.702-3.767 2.552-6.198 2.552-1.555 0-2.977-.364-4.265-1.093a8.71 8.71 0 0 1-3.1-2.917l-5.905 1.969c.291 1.895.17 3.78-.365 5.65-.535 1.872-1.483 3.586-2.844 5.141l4.157 5.105a7.967 7.967 0 0 1 1.677-.547 9.298 9.298 0 0 1 1.895-.183c2.431 0 4.497.851 6.198 2.552 1.702 1.702 2.552 3.768 2.552 6.198 0 2.43-.85 4.497-2.552 6.198-1.701 1.702-3.767 2.552-6.198 2.552-2.43 0-4.496-.85-6.197-2.552-1.702-1.701-2.553-3.767-2.553-6.198 0-.972.158-1.908.474-2.807.316-.9.742-1.714 1.276-2.443l-4.156-5.177a12.838 12.838 0 0 1-6.38 1.677c-2.26 0-4.387-.559-6.38-1.677l-4.084 5.177c.535.73.96 1.544 1.277 2.443.316.9.474 1.835.474 2.807 0 2.43-.851 4.497-2.553 6.198-1.701 1.702-3.767 2.552-6.197 2.552Z"/></g></svg>