<svg xmlns="http://www.w3.org/2000/svg" width="71" height="70" fill="none"><mask id="a" width="71" height="70" x="0" y="0" maskUnits="userSpaceOnUse" style="mask-type:alpha"><path fill="#402915" d="M.365 0h70v70h-70z"/></mask><g mask="url(#a)"><path fill="#402915" d="M35.365 64.167c-4.034 0-7.826-.766-11.375-2.297-3.548-1.531-6.635-3.61-9.26-6.234-2.625-2.626-4.703-5.712-6.234-9.261C6.964 42.826 6.199 39.035 6.199 35c0-2.09.219-4.144.656-6.161a31.205 31.205 0 0 1 1.896-5.87l4.52 4.52a31.199 31.199 0 0 0-.91 3.756A21.563 21.563 0 0 0 12.031 35c0 6.514 2.26 12.031 6.781 16.552 4.521 4.521 10.039 6.781 16.552 6.781 6.514 0 12.032-2.26 16.553-6.78 4.52-4.522 6.78-10.04 6.78-16.553 0-6.514-2.26-12.031-6.78-16.552-4.521-4.52-10.039-6.781-16.553-6.781-1.312 0-2.588.11-3.828.328-1.24.219-2.467.522-3.682.911l-4.448-4.448a30.546 30.546 0 0 1 5.834-1.968 27.832 27.832 0 0 1 6.124-.657c4.035 0 7.827.766 11.375 2.297 3.55 1.531 6.636 3.61 9.26 6.235 2.626 2.625 4.704 5.711 6.235 9.26 1.532 3.549 2.297 7.34 2.297 11.375s-.765 7.826-2.297 11.375c-1.531 3.549-3.61 6.636-6.234 9.26-2.625 2.626-5.712 4.704-9.26 6.235-3.55 1.531-7.34 2.297-11.376 2.297Zm-18.958-43.75c-1.215 0-2.248-.426-3.099-1.276-.85-.851-1.276-1.884-1.276-3.1 0-1.215.425-2.248 1.276-3.098.85-.85 1.884-1.276 3.1-1.276 1.214 0 2.247.425 3.098 1.276.85.85 1.276 1.883 1.276 3.099 0 1.215-.425 2.248-1.276 3.099-.85.85-1.884 1.276-3.099 1.276ZM17.866 35c0-4.861 1.7-8.993 5.104-12.396 3.402-3.403 7.534-5.104 12.395-5.104 4.862 0 8.993 1.701 12.396 5.104 3.403 3.403 5.104 7.535 5.104 12.396 0 4.861-1.7 8.993-5.104 12.396-3.403 3.403-7.534 5.104-12.396 5.104-4.86 0-8.993-1.701-12.395-5.104-3.403-3.403-5.104-7.535-5.104-12.396Z"/></g></svg>