<svg xmlns="http://www.w3.org/2000/svg" width="71" height="70" fill="none"><mask id="a" width="71" height="70" x="0" y="0" maskUnits="userSpaceOnUse" style="mask-type:alpha"><path fill="#402915" d="M.365 0h70v70h-70z"/></mask><g mask="url(#a)"><path fill="#402915" d="M38.282 49.73a32.066 32.066 0 0 1 6.453-2.298 28.95 28.95 0 0 1 6.672-.765c1.75 0 3.464.145 5.14.437a33.12 33.12 0 0 1 5.068 1.313V19.542a25.275 25.275 0 0 0-4.994-1.532 26.756 26.756 0 0 0-11.995.365A24.978 24.978 0 0 0 38.282 21v28.73Zm-2.917 8.603a27.993 27.993 0 0 0-7.583-4.302 23.897 23.897 0 0 0-8.458-1.531c-2.042 0-4.047.267-6.016.802a26.395 26.395 0 0 0-5.65 2.26c-1.022.535-2.006.51-2.954-.072-.948-.584-1.422-1.434-1.422-2.553V17.792c0-.535.134-1.046.401-1.532.268-.486.669-.85 1.203-1.093a36.063 36.063 0 0 1 7.037-2.589 30.109 30.109 0 0 1 7.4-.911c2.82 0 5.579.364 8.277 1.093a31.44 31.44 0 0 1 7.765 3.282 31.442 31.442 0 0 1 7.766-3.282 31.58 31.58 0 0 1 8.276-1.093c2.528 0 4.995.303 7.401.911a36.061 36.061 0 0 1 7.037 2.589c.534.243.935.607 1.203 1.093.267.486.4.997.4 1.532v35.145c0 1.119-.473 1.97-1.421 2.553-.948.583-1.932.607-2.953.072a26.393 26.393 0 0 0-5.651-2.26 22.85 22.85 0 0 0-6.016-.802c-2.917 0-5.736.51-8.458 1.531a27.994 27.994 0 0 0-7.584 4.302Z"/></g></svg>