<svg xmlns="http://www.w3.org/2000/svg" width="71" height="70" fill="none"><mask id="a" width="71" height="70" x="0" y="0" maskUnits="userSpaceOnUse" style="mask-type:alpha"><path fill="#402915" d="M.365 0h70v70h-70z"/></mask><g mask="url(#a)"><path fill="#402915" d="m14.657 61.25-.437-3.719-.584-.291a6.562 6.562 0 0 1-.802-.51l-3.5 1.458-3.208-5.542 2.99-2.26v-1.532l-2.99-2.333 3.208-5.542 3.5 1.459c.243-.146.474-.292.693-.438a3.77 3.77 0 0 1 .693-.364l.437-3.72h6.417l.437 3.72.584.291c.097.049.218.122.364.219l.438.291 3.5-1.458 3.208 5.542-2.99 2.26v1.605l15.97-9.261-3.282 5.76.875.657-11.52 6.708-2.261 3.938-3.5-1.459c-.243.146-.474.292-.693.438-.219.145-.45.267-.693.364l-.437 3.719h-6.417Zm3.208-16.042c-1.215 0-2.248.426-3.098 1.276-.851.851-1.277 1.884-1.277 3.1 0 1.215.426 2.248 1.277 3.098.85.851 1.883 1.276 3.098 1.276 1.216 0 2.249-.425 3.1-1.276.85-.85 1.275-1.883 1.275-3.099 0-1.215-.425-2.248-1.276-3.099-.85-.85-1.883-1.276-3.099-1.276ZM29.24 29.167l-.437-3.719a.914.914 0 0 0-.365-.219.915.915 0 0 1-.364-.218v16.041l-1.094-1.896-3.281 1.386V25.667l-2.917-5.105 2.917-2.26v-1.531l-2.99-2.334 3.209-5.541 3.5 1.458c.243-.146.474-.291.692-.437.219-.146.45-.268.693-.365l.437-3.719h6.417l.438 3.72.583.29c.194.098.462.268.802.511l3.5-1.458 3.208 5.541-2.99 2.261v1.531l2.99 2.334-3.208 5.541-3.5-1.458c-.243.146-.474.291-.693.437-.218.146-.45.268-.692.365l-.438 3.719H29.24Zm3.209-16.042c-1.215 0-2.248.425-3.1 1.276-.85.85-1.275 1.884-1.275 3.099 0 1.215.425 2.248 1.276 3.099.85.85 1.883 1.276 3.099 1.276 1.215 0 2.248-.425 3.099-1.276.85-.85 1.276-1.884 1.276-3.099 0-1.215-.426-2.248-1.276-3.099-.851-.85-1.884-1.276-3.1-1.276ZM49.657 61.25l-.437-3.719-.584-.291a6.562 6.562 0 0 1-.802-.51l-3.5 1.458-3.208-5.542 2.99-2.26v-1.532l-2.99-2.26 3.208-5.615 3.5 1.459c.146-.098.243-.158.292-.183l1.094-.547-15.75-11.083h3.5L37.26 28l14.219 9.917h4.594l.437 3.718.584.292c.097.049.218.122.364.219l.438.291 3.5-1.458 3.208 5.542-2.99 2.26v1.532l2.99 2.333-3.208 5.541-3.5-1.458c-.243.146-.474.292-.693.438-.219.145-.45.267-.693.364l-.437 3.719h-6.417Zm3.208-16.042c-1.215 0-2.248.426-3.099 1.276-.85.851-1.276 1.884-1.276 3.1 0 1.215.426 2.248 1.276 3.098.851.851 1.884 1.276 3.1 1.276 1.215 0 2.248-.425 3.098-1.276.851-.85 1.276-1.883 1.276-3.099 0-1.215-.425-2.248-1.276-3.099-.85-.85-1.883-1.276-3.099-1.276Z"/></g></svg>