<svg width="24" height="24" viewBox="0 0 24 24" fill="none" xmlns="http://www.w3.org/2000/svg">
<mask id="mask0_67_38" style="mask-type:alpha" maskUnits="userSpaceOnUse" x="0" y="0" width="24" height="24">
<rect width="24" height="24" fill="#402915"/>
</mask>
<g mask="url(#mask0_67_38)">
<path d="M12.475 16.8249L20.85 8.44995L19.55 7.14995L11.175 15.5249L12.475 16.8249ZM5.95 18.9999C4.28333 18.9166 3.04167 18.5666 2.225 17.9499C1.40833 17.3333 1 16.4416 1 15.2749C1 14.1916 1.44583 13.3124 2.3375 12.6374C3.22917 11.9624 4.46667 11.5583 6.05 11.4249C6.7 11.3749 7.1875 11.2708 7.5125 11.1124C7.8375 10.9541 8 10.7333 8 10.45C8 10.0166 7.75417 9.69162 7.2625 9.47495C6.77083 9.25828 5.95833 9.09995 4.825 8.99995L5 6.99995C6.71667 7.13328 7.97917 7.47912 8.7875 8.03745C9.59583 8.59578 10 9.39995 10 10.45C10 11.3333 9.67917 12.0249 9.0375 12.5249C8.39583 13.0249 7.45 13.3249 6.2 13.4249C5.13333 13.5083 4.33333 13.7041 3.8 14.0124C3.26667 14.3208 3 14.7416 3 15.2749C3 15.8583 3.23333 16.2791 3.7 16.5374C4.16667 16.7958 4.95 16.9499 6.05 16.9999L5.95 18.9999ZM12.95 19.1749L8.825 15.0499L19.55 4.32495L23.7 8.44995L12.95 19.1749ZM12.95 19.1749L7.75 20.2499L8.825 15.0499L12.95 19.1749Z" fill="#402915"/>
</g>
</svg>
