<svg width="80" height="80" viewBox="0 0 80 80" fill="none" xmlns="http://www.w3.org/2000/svg">
<mask id="mask0_48_250" style="mask-type:alpha" maskUnits="userSpaceOnUse" x="0" y="0" width="80" height="80">
<rect width="80" height="80" fill="#404040"/>
</mask>
<g mask="url(#mask0_48_250)">
<path d="M39.3333 43.3327H50C50.9444 43.3327 51.7361 43.0132 52.375 42.3744C53.0139 41.7355 53.3333 40.9438 53.3333 39.9993C53.3333 39.0549 53.0139 38.2632 52.375 37.6243C51.7361 36.9855 50.9444 36.666 50 36.666H39.3333L42.3333 33.666C42.9444 33.0549 43.25 32.2771 43.25 31.3327C43.25 30.3882 42.9444 29.6105 42.3333 28.9993C41.7222 28.3882 40.9444 28.0827 40 28.0827C39.0555 28.0827 38.2778 28.3882 37.6667 28.9993L29 37.666C28.3333 38.3327 28 39.1105 28 39.9993C28 40.8882 28.3333 41.666 29 42.3327L37.6667 50.9993C38.2778 51.6105 39.0555 51.916 40 51.916C40.9444 51.916 41.7222 51.6105 42.3333 50.9993C42.9444 50.3882 43.25 49.6105 43.25 48.666C43.25 47.7216 42.9444 46.9438 42.3333 46.3327L39.3333 43.3327ZM40 73.3327C35.3889 73.3327 31.0555 72.4577 27 70.7077C22.9444 68.9577 19.4167 66.5827 16.4167 63.5827C13.4167 60.5827 11.0417 57.0549 9.29166 52.9994C7.54166 48.9438 6.66666 44.6105 6.66666 39.9993C6.66666 35.3882 7.54166 31.0549 9.29166 26.9993C11.0417 22.9438 13.4167 19.416 16.4167 16.416C19.4167 13.416 22.9444 11.041 27 9.29102C31.0555 7.54102 35.3889 6.66602 40 6.66602C44.6111 6.66602 48.9444 7.54102 53 9.29102C57.0555 11.041 60.5833 13.416 63.5833 16.416C66.5833 19.416 68.9583 22.9438 70.7083 26.9993C72.4583 31.0549 73.3333 35.3882 73.3333 39.9993C73.3333 44.6105 72.4583 48.9438 70.7083 52.9994C68.9583 57.0549 66.5833 60.5827 63.5833 63.5827C60.5833 66.5827 57.0555 68.9577 53 70.7077C48.9444 72.4577 44.6111 73.3327 40 73.3327ZM40 66.666C47.4444 66.666 53.75 64.0827 58.9167 58.916C64.0833 53.7493 66.6667 47.4438 66.6667 39.9993C66.6667 32.5549 64.0833 26.2493 58.9167 21.0827C53.75 15.916 47.4444 13.3327 40 13.3327C32.5555 13.3327 26.25 15.916 21.0833 21.0827C15.9167 26.2493 13.3333 32.5549 13.3333 39.9993C13.3333 47.4438 15.9167 53.7493 21.0833 58.916C26.25 64.0827 32.5555 66.666 40 66.666Z" fill="#404040"/>
</g>
</svg>
