<svg width="80" height="80" viewBox="0 0 80 80" fill="none" xmlns="http://www.w3.org/2000/svg">
<mask id="mask0_48_253" style="mask-type:alpha" maskUnits="userSpaceOnUse" x="0" y="0" width="80" height="80">
<rect x="80" y="80" width="80" height="80" transform="rotate(-180 80 80)" fill="#404040"/>
</mask>
<g mask="url(#mask0_48_253)">
<path d="M40.6667 36.6673L30 36.6673C29.0556 36.6673 28.2639 36.9868 27.625 37.6256C26.9862 38.2645 26.6667 39.0562 26.6667 40.0006C26.6667 40.9451 26.9862 41.7368 27.625 42.3756C28.2639 43.0145 29.0556 43.334 30 43.334L40.6667 43.334L37.6667 46.334C37.0556 46.9451 36.75 47.7229 36.75 48.6673C36.75 49.6118 37.0556 50.3895 37.6667 51.0006C38.2778 51.6118 39.0556 51.9173 40 51.9173C40.9445 51.9173 41.7223 51.6118 42.3334 51.0006L51 42.334C51.6667 41.6673 52 40.8895 52 40.0007C52 39.1118 51.6667 38.334 51 37.6673L42.3334 29.0006C41.7223 28.3895 40.9445 28.084 40 28.084C39.0556 28.084 38.2778 28.3895 37.6667 29.0006C37.0556 29.6118 36.75 30.3895 36.75 31.334C36.75 32.2784 37.0556 33.0562 37.6667 33.6673L40.6667 36.6673ZM40 6.66732C44.6112 6.66732 48.9445 7.54232 53 9.29232C57.0556 11.0423 60.5834 13.4173 63.5834 16.4173C66.5834 19.4173 68.9584 22.9451 70.7084 27.0006C72.4584 31.0562 73.3334 35.3895 73.3334 40.0007C73.3334 44.6118 72.4584 48.9451 70.7084 53.0007C68.9584 57.0562 66.5834 60.584 63.5834 63.584C60.5834 66.584 57.0556 68.959 53 70.709C48.9445 72.459 44.6112 73.334 40 73.334C35.3889 73.334 31.0556 72.459 27 70.709C22.9445 68.959 19.4167 66.584 16.4167 63.584C13.4167 60.584 11.0417 57.0562 9.29171 53.0006C7.54171 48.9451 6.66671 44.6118 6.66671 40.0006C6.66671 35.3895 7.54171 31.0562 9.29171 27.0006C11.0417 22.9451 13.4167 19.4173 16.4167 16.4173C19.4167 13.4173 22.9445 11.0423 27 9.29232C31.0556 7.54232 35.3889 6.66732 40 6.66732ZM40 13.334C32.5556 13.334 26.25 15.9173 21.0834 21.084C15.9167 26.2506 13.3334 32.5562 13.3334 40.0006C13.3334 47.4451 15.9167 53.7506 21.0834 58.9173C26.25 64.084 32.5556 66.6673 40 66.6673C47.4445 66.6673 53.75 64.084 58.9167 58.9173C64.0834 53.7506 66.6667 47.4451 66.6667 40.0007C66.6667 32.5562 64.0834 26.2507 58.9167 21.084C53.75 15.9173 47.4445 13.334 40 13.334Z" fill="#404040"/>
</g>
</svg>
