<svg xmlns="http://www.w3.org/2000/svg" width="71" height="70" fill="none"><mask id="a" width="71" height="70" x="0" y="0" maskUnits="userSpaceOnUse" style="mask-type:alpha"><path fill="#402915" d="M.365 0h70v70h-70z"/></mask><g mask="url(#a)"><path fill="#402915" d="M30.334 35c-1.36 0-2.479-.51-3.354-1.531s-1.19-2.212-.948-3.573l.875-5.25c.389-2.09 1.373-3.804 2.953-5.14 1.58-1.338 3.415-2.006 5.505-2.006 2.14 0 3.999.668 5.579 2.005 1.58 1.337 2.564 3.05 2.953 5.14l.875 5.25c.243 1.362-.073 2.553-.948 3.574C42.949 34.489 41.83 35 40.47 35H30.334ZM9.407 37.844c-1.118.048-2.078-.17-2.88-.657-.802-.486-1.325-1.24-1.568-2.26a3.983 3.983 0 0 1-.073-1.312c.049-.438.17-.851.365-1.24 0 .049-.024-.049-.073-.292-.097-.097-.34-.68-.73-1.75a2.838 2.838 0 0 1 .22-1.677 4.67 4.67 0 0 1 .947-1.385l.146-.146a3.673 3.673 0 0 1 1.13-2.333c.657-.632 1.471-.948 2.443-.948.146 0 .608.097 1.386.291l.218-.073a2.27 2.27 0 0 1 .948-.546 4.134 4.134 0 0 1 1.24-.183c.535 0 1.009.085 1.422.256.413.17.741.425.984.765.049 0 .085.012.11.037.024.024.06.036.109.036.68.049 1.276.255 1.786.62.51.364.887.863 1.13 1.495.098.34.134.668.11.984-.024.316-.085.62-.182.912 0 .048.024.145.073.291.34.34.607.717.802 1.13.194.414.291.839.291 1.276 0 .195-.145.705-.437 1.532a.31.31 0 0 0 0 .291l.146 1.167c0 1.02-.426 1.896-1.276 2.625-.851.73-1.884 1.094-3.1 1.094H9.408Zm49.292.073c-1.604 0-2.978-.572-4.12-1.714s-1.714-2.516-1.714-4.12c0-.583.085-1.13.256-1.64.17-.51.4-1.009.692-1.495l-2.041-1.823c-.486-.389-.571-.875-.255-1.458.316-.584.765-.875 1.348-.875H58.7c1.604 0 2.977.57 4.12 1.713 1.142 1.143 1.713 2.516 1.713 4.12v1.458c0 1.605-.571 2.978-1.713 4.12-1.143 1.142-2.516 1.714-4.12 1.714ZM.365 52.5v-4.594c0-2.139 1.082-3.852 3.245-5.14 2.163-1.289 4.97-1.933 8.422-1.933.632 0 1.24.013 1.823.037s1.142.085 1.677.182c-.68.972-1.19 2.017-1.531 3.136a12.208 12.208 0 0 0-.51 3.572v4.74H.365Zm17.5 0v-4.74c0-3.16 1.617-5.711 4.85-7.656 3.232-1.944 7.45-2.916 12.65-2.916 5.25 0 9.48.972 12.688 2.916 3.208 1.945 4.813 4.497 4.813 7.656v4.74h-35ZM58.7 40.833c3.5 0 6.32.644 8.458 1.933 2.139 1.288 3.209 3.001 3.209 5.14V52.5H57.24v-4.74c0-1.264-.157-2.454-.474-3.572a11.417 11.417 0 0 0-1.421-3.136 12.103 12.103 0 0 1 1.64-.182c.56-.024 1.13-.037 1.714-.037Z"/></g></svg>