<svg xmlns="http://www.w3.org/2000/svg" width="71" height="70" fill="none"><mask id="a" width="71" height="70" x="0" y="0" maskUnits="userSpaceOnUse" style="mask-type:alpha"><path fill="#402915" d="M.365 0h70v70h-70z"/></mask><g mask="url(#a)"><path fill="#402915" d="M.365 52.5v-4.594c0-2.09 1.07-3.791 3.209-5.104 2.139-1.312 4.958-1.969 8.458-1.969.632 0 1.24.013 1.823.037s1.142.085 1.677.182c-.68 1.02-1.19 2.09-1.531 3.208a11.953 11.953 0 0 0-.51 3.5v4.74H.365Zm17.5 0v-4.74c0-1.555.426-2.977 1.277-4.265.85-1.288 2.053-2.419 3.609-3.39 1.555-.973 3.415-1.702 5.578-2.188 2.163-.486 4.509-.73 7.036-.73 2.577 0 4.947.244 7.11.73 2.163.486 4.022 1.215 5.578 2.187 1.556.972 2.747 2.103 3.573 3.39a7.739 7.739 0 0 1 1.24 4.266v4.74h-35Zm39.376 0v-4.74c0-1.264-.158-2.454-.474-3.572a11.417 11.417 0 0 0-1.422-3.136 12.103 12.103 0 0 1 1.64-.182c.56-.024 1.13-.037 1.714-.037 3.5 0 6.32.644 8.458 1.933 2.139 1.288 3.209 3.001 3.209 5.14V52.5H57.24ZM12.031 37.917c-1.604 0-2.977-.572-4.12-1.714C6.77 35.061 6.2 33.687 6.2 32.083c0-1.652.571-3.038 1.713-4.156 1.143-1.118 2.516-1.677 4.12-1.677 1.653 0 3.038.559 4.156 1.677 1.119 1.118 1.678 2.504 1.678 4.156 0 1.605-.56 2.978-1.678 4.12-1.118 1.142-2.503 1.714-4.156 1.714Zm46.667 0c-1.604 0-2.978-.572-4.12-1.714s-1.714-2.516-1.714-4.12c0-1.652.572-3.038 1.714-4.156 1.142-1.118 2.516-1.677 4.12-1.677 1.653 0 3.038.559 4.156 1.677 1.118 1.118 1.677 2.504 1.677 4.156 0 1.605-.559 2.978-1.677 4.12-1.118 1.142-2.503 1.714-4.156 1.714ZM35.365 35c-2.43 0-4.496-.85-6.197-2.552-1.702-1.701-2.552-3.767-2.552-6.198 0-2.48.85-4.557 2.552-6.234 1.701-1.677 3.767-2.516 6.197-2.516 2.48 0 4.558.838 6.235 2.516 1.677 1.677 2.515 3.755 2.515 6.234 0 2.43-.838 4.497-2.515 6.198C39.923 34.149 37.845 35 35.365 35Z"/></g></svg>