<svg xmlns="http://www.w3.org/2000/svg" width="71" height="70" fill="none"><mask id="a" width="71" height="70" x="0" y="0" maskUnits="userSpaceOnUse" style="mask-type:alpha"><path fill="#402915" d="M.365 0h70v70h-70z"/></mask><g mask="url(#a)"><path fill="#402915" d="M17.866 61.25v-2.917l4.375-2.916c-2.869 0-5.287-.985-7.256-2.953-1.968-1.97-2.953-4.388-2.953-7.256V17.5c0-4.035 1.872-6.988 5.615-8.86 3.743-1.87 9.649-2.807 17.718-2.807 8.362 0 14.34.9 17.938 2.698 3.597 1.799 5.396 4.788 5.396 8.969v27.708c0 2.868-.985 5.287-2.953 7.256-1.97 1.968-4.388 2.953-7.256 2.953l4.375 2.916v2.917h-35Zm0-32.083h14.583v-8.75H17.866v8.75Zm20.416 0h14.584v-8.75H38.281v8.75Zm-13.125 17.5c1.215 0 2.248-.426 3.1-1.276.85-.851 1.275-1.884 1.275-3.1 0-1.215-.425-2.248-1.276-3.098-.85-.85-1.884-1.276-3.099-1.276-1.215 0-2.248.425-3.099 1.276-.85.85-1.276 1.883-1.276 3.099 0 1.215.425 2.248 1.276 3.099.85.85 1.884 1.276 3.1 1.276Zm20.417 0c1.215 0 2.248-.426 3.099-1.276.85-.851 1.276-1.884 1.276-3.1 0-1.215-.425-2.248-1.276-3.098-.85-.85-1.884-1.276-3.1-1.276-1.215 0-2.248.425-3.098 1.276-.85.85-1.276 1.883-1.276 3.099 0 1.215.425 2.248 1.276 3.099.85.85 1.883 1.276 3.099 1.276Z"/></g></svg>