<svg xmlns="http://www.w3.org/2000/svg" width="160" height="160" fill="none"><mask id="a" width="160" height="160" x="0" y="0" maskUnits="userSpaceOnUse" style="mask-type:alpha"><path fill="#fff" d="M0 0h160v160H0z"/></mask><g mask="url(#a)"><path fill="#fff" d="M72.167 146.667c-3 0-5.584-1-7.75-3-2.167-2-3.473-4.445-3.917-7.334l-1.5-11a25.24 25.24 0 0 1-4.083-2 54.613 54.613 0 0 1-3.75-2.5l-10.334 4.334c-2.777 1.222-5.555 1.333-8.333.333-2.778-1-4.944-2.778-6.5-5.333L18.167 106.5c-1.556-2.556-2-5.278-1.334-8.167.667-2.889 2.167-5.278 4.5-7.166l8.834-6.667A15.917 15.917 0 0 1 30 82.25v-4.5c0-.722.056-1.472.167-2.25l-8.834-6.667c-2.333-1.889-3.833-4.278-4.5-7.166-.666-2.89-.222-5.611 1.334-8.167L26 39.833c1.556-2.555 3.722-4.333 6.5-5.333s5.556-.889 8.333.333l10.334 4.334a45.41 45.41 0 0 1 3.833-2.5 33.565 33.565 0 0 1 4-2l1.5-11c.444-2.89 1.75-5.334 3.917-7.334 2.166-2 4.75-3 7.75-3h15.666c3 0 5.584 1 7.75 3 2.167 2 3.473 4.445 3.917 7.334l1.5 11a25.28 25.28 0 0 1 4.083 2 54.809 54.809 0 0 1 3.75 2.5l10.334-4.334c2.777-1.222 5.555-1.333 8.333-.333 2.778 1 4.944 2.778 6.5 5.333l7.833 13.667c1.556 2.556 2 5.278 1.334 8.167-.667 2.888-2.167 5.277-4.5 7.166l-8.834 6.667c.111.778.167 1.528.167 2.25v4.5c0 .722-.111 1.472-.333 2.25l8.833 6.667c2.333 1.888 3.833 4.277 4.5 7.166.667 2.889.222 5.611-1.333 8.167l-8 13.667c-1.556 2.555-3.723 4.333-6.5 5.333-2.778 1-5.556.889-8.334-.333l-10-4.334a45.225 45.225 0 0 1-3.833 2.5 33.452 33.452 0 0 1-4 2l-1.5 11c-.444 2.889-1.75 5.334-3.917 7.334-2.166 2-4.75 3-7.75 3H72.167Zm8.166-43.334c6.445 0 11.945-2.277 16.5-6.833 4.556-4.556 6.834-10.056 6.834-16.5 0-6.445-2.278-11.945-6.834-16.5-4.555-4.556-10.055-6.833-16.5-6.833-6.555 0-12.083 2.277-16.583 6.833C59.25 68.055 57 73.555 57 80c0 6.444 2.25 11.944 6.75 16.5 4.5 4.556 10.028 6.833 16.583 6.833Z"/></g></svg>